<svg width="32" height="32" viewBox="0 0 32 32" fill="none" xmlns="http://www.w3.org/2000/svg">
<rect width="32" height="32" fill="#154273"/>
<path d="M16.5195 20.5526H15.997V19.1051H16.5195V20.5526ZM18.8799 14.1622H18.3574V12.7147H18.8799V14.1622ZM9.1982 11.6637C9.15616 11.6637 8.88589 11.6637 8.88589 11.7177C8.88589 11.7718 9.01201 11.7477 9.1982 11.7778C9.61862 11.8499 9.78078 12.0601 10.0751 12.0601C10.3393 12.0601 10.6156 11.8799 10.5075 11.4955C10.4895 11.4294 10.4535 11.4474 10.4414 11.4895C10.3994 11.6637 10.1892 11.7598 9.96697 11.7598C9.69069 11.7598 9.63664 11.6637 9.1982 11.6637ZM6.32132 13.1111C6.36937 13.1772 6.86186 13.8138 6.10511 14.0601C6.06907 14.0721 6.06306 14.1021 6.11111 14.1261C6.66967 14.3604 6.93994 13.9279 6.93994 13.9279C7.22222 14.5766 6.78979 14.9309 6.78979 14.9309C6.84985 15.045 7.12012 15.2432 7.52252 15.3333C7.67868 15.2492 7.89489 15.0931 7.98498 14.8529C7.98498 14.8529 8.09309 15.1351 7.997 15.4054C9.13814 15.5075 9.54054 14.5946 10.4234 14.7628C10.4474 14.7688 10.4595 14.7508 10.4595 14.7267C10.4595 14.1622 10.1171 13.1351 9.02402 12.9249C7.93694 12.7147 8.23123 12.2703 8.23123 12.2703C8.68769 12.2523 8.95195 12.4505 8.95195 12.4505C9.03604 12.3123 8.91592 12.1682 8.91592 12.1682C8.95796 12.1141 8.98198 11.9279 8.98198 11.9279C8.46547 11.9279 8.33333 11.8138 8.33333 11.8138C8.25526 11.5075 8.46547 11.0751 9.23423 11.5375C9.42643 11.3694 9.40841 11.1051 9.40841 11.1051C9.46847 11.0751 9.5045 10.985 9.5045 10.9489C9.5045 10.8228 8.89189 10.4805 8.73574 10.4384C8.6997 10.2523 8.45946 9.98799 7.73874 10.0841C7.3964 10.1261 7.15015 10.036 7.26426 9.83784C7.28228 9.8018 7.22222 9.7958 7.19219 9.83183C7.11411 9.90991 7.00601 10.1321 7.3003 10.2823C7.63063 10.4504 7.64865 10.7808 7.65465 10.8288C7.66066 10.9009 7.57658 10.9069 7.55856 10.8348C7.40841 10.2763 6.63964 10.1562 6.18919 10.4505C6.21321 10.7508 6.53754 10.9489 6.71171 10.9489C6.81381 10.9489 6.95195 10.8468 6.95195 10.7087C6.95195 10.6426 6.98799 10.6486 7.00601 10.7027C7.07808 10.9009 6.78378 11.3153 6.35135 11.0631C5.90691 11.5075 6.08709 12.0601 6.12913 12.2583C6.20721 12.6186 6.03303 12.973 5.7027 12.8108C5.68468 12.8048 5.66667 12.7988 5.66667 12.8348C5.67267 13.0511 5.96697 13.3093 6.32132 13.1111ZM8.77177 10.8709C8.56156 11.1051 8.22522 11.0511 8.14114 10.6667C8.57357 10.6426 8.75375 10.6847 8.77177 10.8709ZM22.027 11.7598C21.8048 11.7598 21.5946 11.6637 21.5526 11.4895C21.5405 11.4474 21.5045 11.4294 21.4865 11.4955C21.3784 11.8799 21.6547 12.0601 21.9189 12.0601C22.2132 12.0601 22.3754 11.8499 22.7958 11.7778C22.982 11.7477 23.1081 11.7778 23.1081 11.7177C23.1081 11.6637 22.8378 11.6637 22.7958 11.6637C22.3634 11.6637 22.3033 11.7598 22.027 11.7598ZM26.3273 12.8228C26.3273 12.7868 26.3093 12.7928 26.2913 12.7988C25.961 12.961 25.7868 12.6126 25.8649 12.2462C25.9069 12.042 26.0871 11.4955 25.6426 11.0511C25.2042 11.3033 24.9099 10.8889 24.988 10.6907C25.006 10.6366 25.042 10.6306 25.042 10.6967C25.042 10.8348 25.1802 10.9369 25.2823 10.9369C25.4565 10.9369 25.7808 10.7387 25.8048 10.4384C25.3544 10.1441 24.5856 10.2643 24.4354 10.8228C24.4174 10.8949 24.3333 10.8889 24.3393 10.8168C24.3393 10.7688 24.3634 10.4384 24.6937 10.2703C24.994 10.1201 24.8859 9.8979 24.8018 9.81982C24.7718 9.78979 24.7057 9.7958 24.7297 9.82583C24.8438 10.024 24.5976 10.1141 24.2613 10.0721C23.5405 9.97598 23.3063 10.2462 23.2643 10.4264C23.1081 10.4685 22.4955 10.8108 22.4955 10.9369C22.4955 10.973 22.5315 11.0691 22.5916 11.0931C22.5916 11.0931 22.5796 11.3514 22.7658 11.5255C23.5285 11.0631 23.7447 11.4955 23.6667 11.8018C23.6667 11.8018 23.5285 11.9099 23.012 11.9159C23.012 11.9159 23.036 12.1021 23.0781 12.1562C23.0781 12.1562 22.958 12.3063 23.042 12.4384C23.042 12.4384 23.3063 12.2402 23.7628 12.2583C23.7628 12.2583 24.0571 12.7027 22.97 12.9129C21.8829 13.1231 21.5345 14.1502 21.5345 14.7147C21.5345 14.7447 21.5465 14.7568 21.5706 14.7507C22.4535 14.5886 22.8559 15.5015 23.997 15.3934C23.8949 15.1231 24.009 14.8408 24.009 14.8408C24.0991 15.0811 24.3153 15.2432 24.4715 15.3213C24.8799 15.2312 25.1441 15.039 25.2042 14.9189C25.2042 14.9189 24.7718 14.5646 25.0541 13.9159C25.0541 13.9159 25.3243 14.3483 25.8829 14.1141C25.9309 14.0901 25.9189 14.0601 25.8889 14.048C25.1321 13.8018 25.6246 13.1652 25.6727 13.0991C26.027 13.3093 26.3273 13.0511 26.3273 12.8228ZM23.8529 10.6667C23.7688 11.0511 23.4324 11.1051 23.2222 10.8709C23.2402 10.6847 23.4264 10.6426 23.8529 10.6667ZM15.7988 4.24625C15.7988 4.34234 15.8408 4.42643 15.8709 4.47448C15.9369 4.57057 15.9249 4.62462 15.8949 4.65465C15.8649 4.68468 15.8108 4.6967 15.7147 4.63063C15.6667 4.59459 15.5826 4.55856 15.4865 4.55856C15.3243 4.55856 15.2402 4.66667 15.2402 4.75676C15.2402 4.84685 15.3243 4.95496 15.4865 4.95496C15.5826 4.95496 15.6667 4.91291 15.7147 4.88288C15.8108 4.81682 15.8649 4.82883 15.8949 4.85886C15.9249 4.88889 15.8829 5.21922 15.8408 5.48348C15.5706 5.54354 15.4384 5.75976 15.4384 5.88589C15.4384 6.21622 15.7868 6.4024 15.997 6.51652C16.2012 6.40841 16.5556 6.21622 16.5556 5.88589C16.5556 5.75976 16.4234 5.53754 16.1532 5.48348C16.1171 5.22523 16.0691 4.88889 16.0991 4.85886C16.1291 4.82883 16.1832 4.81682 16.2793 4.88288C16.3273 4.91892 16.4114 4.95496 16.5075 4.95496C16.6697 4.95496 16.7538 4.84685 16.7538 4.75676C16.7538 4.66667 16.6697 4.55856 16.5075 4.55856C16.4114 4.55856 16.3273 4.6006 16.2793 4.63063C16.1832 4.6967 16.1291 4.68468 16.0991 4.65465C16.0691 4.62462 16.0571 4.57057 16.1231 4.47448C16.1592 4.42643 16.1952 4.34234 16.1952 4.24625C16.1952 4.08408 16.0871 4 15.997 4C15.9069 4 15.7988 4.08408 15.7988 4.24625ZM15.997 6.68469C15.7748 6.68469 15.5946 6.86486 15.5946 7.08709C15.5946 7.30931 15.7748 7.48949 15.997 7.48949C16.2192 7.48949 16.3994 7.30931 16.3994 7.08709C16.3994 6.86486 16.2192 6.68469 15.997 6.68469ZM15.997 10.5345C17.6006 10.5345 18.5015 10.8408 18.5015 10.8408C18.5075 10.03 18.5075 9.57958 18.97 9.64565C18.7177 8.96697 19.8108 8.6967 19.8108 7.81382C19.8108 7.23123 19.3964 7.16517 19.2763 7.16517C18.9159 7.16517 18.97 7.3994 18.6637 7.3994C18.6276 7.3994 18.5856 7.38739 18.5856 7.41742C18.5856 7.51952 18.6697 7.69369 18.8138 7.69369C19.006 7.69369 19.006 7.5015 19.1502 7.5015C19.2102 7.5015 19.3003 7.54955 19.3003 7.74775C19.3003 8.12613 19.0541 8.54054 18.7598 8.86487C18.6937 8.77478 18.6036 8.71472 18.4895 8.71472C18.3153 8.71472 18.1652 8.8949 18.1652 9.11712C18.1652 9.2012 18.1772 9.26126 18.2072 9.32733C18.1111 9.38138 18.021 9.41141 17.961 9.41141C17.8288 9.41141 17.6306 9.35736 17.6306 9.06907C17.6306 8.42643 18.4895 7.86186 18.4895 7.04504C18.4895 6.65465 18.2312 6.27027 17.6847 6.27027C17.1021 6.27027 17.2102 6.7988 16.7057 6.7988C16.6817 6.7988 16.6637 6.8048 16.6637 6.82883C16.6637 6.86486 16.7538 7.15916 17.012 7.15916C17.2883 7.15916 17.3664 6.67868 17.6186 6.67868C17.7087 6.67868 17.8468 6.73273 17.8468 7.05706C17.8468 7.30931 17.7207 7.72373 17.5405 8.11412C17.4745 8.04805 17.3844 8 17.2883 8C17.0721 8 16.9159 8.21021 16.9159 8.45646C16.9159 8.61261 16.976 8.76877 17.0841 8.86487C16.958 9.02703 16.8258 9.15916 16.6517 9.15916C16.3033 9.15916 16.1532 8.96096 16.1532 8.74475C16.1532 8.51051 16.5796 8.42643 16.5796 8.06607C16.5796 7.81982 16.4174 7.68168 16.2673 7.68168C16.0991 7.68168 16.015 7.78979 15.997 7.78979C15.979 7.78979 15.8949 7.68168 15.7267 7.68168C15.5706 7.68168 15.4144 7.81982 15.4144 8.06607C15.4144 8.42643 15.8408 8.51652 15.8408 8.74475C15.8408 8.96096 15.6847 9.15916 15.3423 9.15916C15.1682 9.15916 15.036 9.02703 14.9099 8.86487C15.018 8.76276 15.0781 8.61261 15.0781 8.45646C15.0781 8.20421 14.9219 8 14.7057 8C14.6036 8 14.5195 8.04805 14.4535 8.11412C14.2733 7.71772 14.1471 7.30931 14.1471 7.05706C14.1471 6.73273 14.2853 6.67868 14.3754 6.67868C14.6216 6.67868 14.6997 7.15916 14.982 7.15916C15.2402 7.15916 15.3303 6.86486 15.3303 6.82883C15.3303 6.81081 15.3123 6.7988 15.2883 6.7988C14.7838 6.7988 14.8919 6.27027 14.3093 6.27027C13.7688 6.27027 13.5045 6.65465 13.5045 7.04504C13.5045 7.86186 14.3634 8.42643 14.3634 9.06907C14.3634 9.35736 14.1652 9.41141 14.033 9.41141C13.967 9.41141 13.8829 9.38138 13.7868 9.32733C13.8168 9.25525 13.8288 9.2012 13.8288 9.11712C13.8288 8.8949 13.6787 8.71472 13.5045 8.71472C13.3964 8.71472 13.3063 8.77478 13.2402 8.86487C12.9459 8.54054 12.6997 8.12613 12.6997 7.74775C12.6997 7.55556 12.7898 7.5015 12.8499 7.5015C12.988 7.5015 12.994 7.69369 13.1862 7.69369C13.3303 7.69369 13.4144 7.51952 13.4144 7.41742C13.4144 7.38739 13.3724 7.3994 13.3363 7.3994C13.03 7.3994 13.0841 7.16517 12.7237 7.16517C12.6036 7.16517 12.1892 7.23123 12.1892 7.81382C12.1892 8.7027 13.2823 8.96697 13.03 9.64565C13.4925 9.57958 13.4865 10.03 13.4985 10.8408C13.4925 10.8408 14.3934 10.5345 15.997 10.5345ZM13.0601 11.7297C12.6216 11.8258 12.3093 11.9159 12.1712 11.958C12.1772 11.7658 12.2492 11.5856 12.4234 11.5495C12.4474 11.5435 12.4535 11.5135 12.4294 11.5015C12.039 11.2432 11.8348 11.7357 11.8288 11.7538C11.6907 11.7417 11.4805 11.7838 11.4805 11.97C11.4805 12.5285 10.2072 12.8348 9.91291 12.8829C10.4354 13.0811 10.6517 13.7417 10.6517 13.7417C11.03 13.3634 11.4685 13.033 11.5706 13.033C11.6727 13.033 11.7087 13.1592 11.7147 13.2312C11.7147 13.2553 11.7387 13.2613 11.7568 13.2432C11.955 12.949 11.8589 12.8829 11.8408 12.7928C11.8288 12.7267 11.8468 12.4685 12.1351 12.4985V16.2162L11.985 16.2462C11.9189 16.2583 11.3724 15.7958 10.7538 15.3634C10.1291 14.9309 9.7988 15.1892 9.09009 15.5736C8.15916 16.0781 7.22222 15.6216 7.22222 15.6216C6.42342 16.1922 6.14715 17.8499 6.14715 17.8499C5.98498 17.9159 5.72072 17.988 5.47447 17.988C4.86186 17.988 4.75375 17.6156 4.75375 17.3994C4.75375 16.4565 5.93694 16.0541 5.93694 15.1231C5.93694 14.8949 5.83483 13.982 4.6997 13.982C4.55556 13.982 3.69069 13.982 3.68468 13.982C3.25826 13.982 3.15616 13.6757 3.0961 13.5616C3.07207 13.5135 3.03003 13.5435 3.04805 13.5796C3.07808 13.6577 3 13.7778 3 14.012C3 14.3904 3.22222 14.6186 3.63664 14.6186C3.82282 14.6186 4.003 14.5646 4.05706 14.5285C4.09309 14.5045 4.11712 14.5405 4.0991 14.5646C3.91892 14.7748 3.90691 15.1712 3.97898 15.2613C3.997 15.2853 4.02102 15.2793 4.02102 15.2613C4.12312 14.8649 4.4955 14.4865 5 14.4865C5.61862 14.4865 5.61261 15.009 5.61261 15.1351C5.61261 15.8919 4.28529 16.4444 4.28529 17.4895C4.28529 18.5465 5.4024 18.7688 6.04504 18.6066C6.00901 19.6637 4.7958 20.024 4.75976 19.2673C4.75976 19.2312 4.72973 19.2252 4.71171 19.2733C4.56156 19.6456 4.62162 19.976 5.09009 20.0781C5.12012 20.0841 5.10811 20.1021 5.07808 20.1261C4.60961 20.4204 4.86186 21.5856 4.88589 21.9279C4.92192 22.4204 4.42943 22.3604 4.38739 22.3483C4.36937 22.3423 4.34535 22.3483 4.38138 22.3904C4.72973 22.8168 5.16216 22.4264 5.16216 22.4264C5.48649 22.5285 5.28829 22.8048 5.06607 22.9489C5.03003 22.973 5.03604 22.997 5.07207 22.997C5.12012 23.003 5.62462 23.045 5.71471 22.6426C5.93694 22.9069 6.26727 22.8108 6.33333 22.7748C6.42943 22.7267 6.9039 22.5526 6.94595 23.0811C6.94595 23.1171 6.96997 23.0931 6.98799 23.0751C7.34234 22.6246 6.96396 22.3484 6.74775 22.3183C6.76577 22.2943 7.04805 22.0541 7.30631 22.3844C7.32432 22.4084 7.34234 22.4144 7.34234 22.3664C7.37237 21.7958 6.90991 21.7477 6.60961 21.994C6.5976 21.9339 6.4955 21.6156 6.94595 21.6276C6.95796 21.6276 6.97598 21.6096 6.95796 21.5916C6.60961 21.2192 6.32132 21.5556 6.24925 21.6396C6.09309 21.8258 5.7027 21.7477 5.66667 21.7477C5.78679 19.7718 7.52853 20.4745 7.76877 19.5135C7.78078 19.4655 7.8048 19.4835 7.8048 19.5015C7.87087 19.7357 8.45946 19.7658 8.56757 19.3093C8.57357 19.2793 8.56757 19.2613 8.54955 19.2793C8.04504 19.7838 6.90991 18.2102 8.45946 16.9309C9.78078 15.8438 10.964 16.4505 11.4144 16.8048C11.4384 16.961 11.3423 17.015 11.2823 17.033C11.2583 17.039 11.2523 17.0571 11.2883 17.0751C11.4144 17.1231 11.5886 17.1051 11.6727 16.991C11.955 17.1892 11.7147 17.4414 11.6006 17.5075C11.5706 17.5255 11.5826 17.5435 11.6066 17.5496C11.8649 17.5976 12.0811 17.3333 12.0931 17.1772L12.1351 17.2012V18.3243C12.1351 19.9219 13.979 20.1441 16.003 21.4955C18.027 20.1381 19.8649 19.9219 19.8649 18.3243V17.2012L19.9069 17.1772C19.9189 17.3273 20.1291 17.5976 20.3934 17.5496C20.4174 17.5435 20.4294 17.5255 20.3994 17.5075C20.2853 17.4354 20.039 17.1892 20.3273 16.991C20.4114 17.1111 20.5856 17.1231 20.7117 17.0751C20.7477 17.0631 20.7417 17.039 20.7177 17.033C20.6577 17.015 20.5616 16.961 20.5856 16.8048C21.036 16.4444 22.2192 15.8378 23.5405 16.9309C25.0901 18.2102 23.955 19.7778 23.4504 19.2793C23.4264 19.2553 23.4264 19.2793 23.4324 19.3093C23.5405 19.7718 24.1291 19.7357 24.1952 19.5015C24.2012 19.4835 24.2252 19.4655 24.2312 19.5135C24.4715 20.4745 26.2072 19.7718 26.3333 21.7477C26.2973 21.7538 25.9069 21.8258 25.7508 21.6396C25.6847 21.5616 25.3964 21.2192 25.042 21.5916C25.018 21.6156 25.042 21.6276 25.0541 21.6276C25.5045 21.6156 25.4084 21.9339 25.3904 21.994C25.0901 21.7477 24.6276 21.7958 24.6577 22.3664C24.6577 22.4084 24.6757 22.4084 24.6937 22.3844C24.952 22.0541 25.2342 22.2943 25.2523 22.3183C25.042 22.3484 24.6577 22.6246 25.012 23.0751C25.03 23.0931 25.048 23.1171 25.0541 23.0811C25.1021 22.5526 25.5706 22.7207 25.6667 22.7748C25.7327 22.8108 26.0631 22.9069 26.2853 22.6426C26.3754 23.045 26.8799 23.003 26.9279 22.997C26.964 22.997 26.964 22.973 26.9339 22.9489C26.7177 22.8048 26.5135 22.5285 26.8378 22.4264C26.8378 22.4264 27.2703 22.8168 27.6186 22.3904C27.6486 22.3544 27.6306 22.3423 27.6126 22.3483C27.5706 22.3604 27.0781 22.4204 27.1141 21.9279C27.1381 21.5856 27.3904 20.4204 26.9219 20.1261C26.8919 20.1081 26.8799 20.0901 26.9099 20.0781C27.3784 19.976 27.4384 19.6456 27.2883 19.2733C27.2703 19.2252 27.2402 19.2372 27.2402 19.2673C27.2042 20.024 25.997 19.6637 25.955 18.6066C26.6036 18.7748 27.7147 18.5465 27.7147 17.4895C27.7147 16.4505 26.3874 15.8919 26.3874 15.1351C26.3874 15.009 26.3814 14.4865 27 14.4865C27.5045 14.4865 27.8769 14.8649 27.979 15.2613C27.985 15.2793 28.003 15.2853 28.021 15.2613C28.0931 15.1652 28.0811 14.7748 27.9009 14.5646C27.8829 14.5465 27.9009 14.5045 27.9429 14.5285C27.997 14.5646 28.1772 14.6186 28.3634 14.6186C28.7778 14.6186 29 14.3904 29 14.012C29 13.7778 28.9159 13.6577 28.952 13.5796C28.97 13.5435 28.9219 13.5195 28.9039 13.5616C28.8438 13.6817 28.7357 13.982 28.3153 13.982C28.3093 13.982 27.4444 13.982 27.3003 13.982C26.1652 13.982 26.0631 14.9009 26.0631 15.1231C26.0631 16.0541 27.2462 16.4565 27.2462 17.3994C27.2462 17.6216 27.1321 17.988 26.5255 17.988C26.2733 17.988 26.009 17.9159 25.8529 17.8499C25.8529 17.8499 25.5826 16.1982 24.7778 15.6216C24.7778 15.6216 23.8408 16.0781 22.9099 15.5736C22.2012 15.1892 21.8649 14.9309 21.2402 15.3634C20.6156 15.7958 20.0751 16.2583 20.009 16.2462L19.8589 16.2162V12.4985C20.1471 12.4685 20.1652 12.7267 20.1532 12.7928C20.1351 12.8769 20.045 12.949 20.2372 13.2432C20.2553 13.2673 20.2733 13.2553 20.2793 13.2312C20.2853 13.1592 20.3273 13.033 20.4234 13.033C20.5195 13.033 20.964 13.3634 21.3423 13.7417C21.3423 13.7417 21.5586 13.0871 22.0811 12.8829C21.7868 12.8348 20.5135 12.5285 20.5135 11.97C20.5135 11.7838 20.3033 11.7417 20.1652 11.7538C20.1592 11.7357 19.9489 11.2432 19.5646 11.5015C19.5465 11.5135 19.5465 11.5435 19.5706 11.5495C19.7447 11.5916 19.8168 11.7658 19.8228 11.958C19.4505 11.8438 17.8709 11.3994 15.997 11.3994C15.0841 11.3994 14.2492 11.5075 13.5826 11.6276V12.9129H13.0601V11.7297ZM9.6006 24.9309C9.46246 24.8769 9.37237 24.7868 9.37237 24.6006V23.8018C9.14414 23.7237 8.51952 23.4835 7.26426 23.4835C6.22522 23.4835 5.9009 23.7177 5.88288 23.8018L5.60661 25.3213C5.60661 25.3213 6.02703 24.9369 7.53453 25.033C9.34835 25.1471 11.2282 26.2222 11.2282 25.0751V24.4024C9.81081 24.4084 9.6006 24.8649 9.6006 24.9309ZM20.7658 24.4084V25.0811C20.7658 26.2222 22.6456 25.1532 24.4595 25.039C25.967 24.9429 26.3874 25.3273 26.3874 25.3273L26.1111 23.8018C26.0991 23.7177 25.7688 23.4835 24.7297 23.4835C23.4805 23.4835 22.8559 23.7237 22.6216 23.8018V24.6006C22.6216 24.7808 22.5315 24.8709 22.3934 24.9309C22.3994 24.8649 22.1892 24.4084 20.7658 24.4084ZM15.997 23.7177C18.9219 23.7177 21.8889 23.8679 22.2733 24.3123C22.3033 24.3484 22.3153 24.3123 22.3153 24.2823V22.7327C22.3153 22.2823 19.2523 22.018 15.991 22.018C12.7297 22.018 9.66667 22.2823 9.66667 22.7327V24.2823C9.66667 24.3063 9.67868 24.3423 9.70871 24.3123C10.1111 23.8739 13.0781 23.7177 15.997 23.7177ZM13.3904 16.4144L13.0961 16.3363L13.0721 16.3724L12.7297 16.2222C12.7297 16.2222 12.982 16.2222 13.036 16.2222C13.0661 16.2222 13.0661 16.2042 13.0541 16.1922C12.9159 16.0541 12.7898 15.9339 12.7898 15.9339C12.7898 15.9339 12.9279 15.988 13.1261 16.0601C13.1502 16.0661 13.1562 16.0541 13.1441 16.036C13.048 15.8979 12.9159 15.7057 12.9159 15.7057C12.9159 15.7057 13.1922 15.8919 13.2462 15.9279C13.2643 15.9399 13.2763 15.9279 13.2703 15.9099C13.1982 15.7297 13.1141 15.5195 13.1141 15.5195L13.4144 15.8078C13.4264 15.8198 13.4444 15.8138 13.4384 15.7958C13.4084 15.6577 13.3544 15.4054 13.3544 15.4054L13.5766 15.7297C13.5886 15.7477 13.6066 15.7417 13.6066 15.7237C13.6066 15.6577 13.6126 15.3694 13.6126 15.3694C13.6126 15.3694 13.7087 15.5856 13.7508 15.6937C13.7628 15.7177 13.7748 15.7177 13.7868 15.6877C13.7988 15.6517 13.9009 15.4114 13.9009 15.4114L13.9129 15.7838L13.8649 15.7958L13.8048 16.2402C14.2432 16.1381 14.7958 15.3814 15.2162 15.3814C15.7207 15.3814 15.9009 15.97 16.8258 15.6697C17.0601 16.018 17.1441 16.3183 17.2342 16.7327C17.5946 17.0691 18.0931 16.955 18.0931 16.6006C18.0931 16.1201 17.5706 16.03 17.5706 15.5255C17.5706 15.3033 17.7267 14.979 18.1532 14.979C18.3814 14.979 18.7117 15.0751 18.9039 15.0751C19.1321 15.0751 19.1802 14.9129 19.2042 14.8408C19.2222 14.7928 19.2883 14.8048 19.2823 14.8468C19.2763 14.8949 19.3063 14.961 19.3063 15.0691C19.3063 15.3874 18.8438 15.4294 18.7898 15.3874C18.7658 15.3694 18.7477 15.3934 18.7658 15.4114C18.8378 15.4655 18.8198 15.6577 18.7357 15.7778C18.7237 15.7898 18.7117 15.7898 18.7117 15.7778C18.6637 15.5496 18.3934 15.2673 18.1592 15.2673C18.0751 15.2673 17.9009 15.3153 17.9009 15.5195C17.9009 15.8018 18.4715 16.0661 18.4715 16.6547C18.4715 17.2673 17.8649 17.4174 17.2523 17.2613C17.2703 17.8438 18.1411 18.1862 18.1592 17.7718C18.1592 17.7417 18.1772 17.7598 18.1832 17.7718C18.3093 17.952 18.2553 18.0841 18.0871 18.1562C18.2372 18.2222 18.2673 18.5285 18.3093 18.7147C18.3754 18.991 18.6637 18.8348 18.6817 18.8288C18.6997 18.8168 18.7057 18.8288 18.6937 18.8468C18.5856 19.1291 18.2913 19.021 18.2913 19.021C18.1411 19.1291 18.3213 19.2252 18.4595 19.2673C18.4775 19.2733 18.4775 19.2853 18.4655 19.2973C18.3634 19.3333 18.1471 19.4054 18.039 19.2192C17.961 19.4114 17.7988 19.4054 17.7387 19.4054C17.6246 19.4054 17.5526 19.5195 17.5766 19.6757C17.5766 19.6877 17.5706 19.6937 17.5586 19.6877C17.2943 19.5135 17.4444 19.3033 17.5526 19.2493C17.5345 19.2372 17.3483 19.1592 17.2703 19.3754C17.2643 19.3934 17.2523 19.3934 17.2462 19.3754C17.1321 19.0631 17.3844 18.973 17.5646 19.0511C17.5526 19.009 17.4565 18.8529 17.2162 18.9069C17.2042 18.9129 17.1982 18.9069 17.2042 18.8889C17.2462 18.7928 17.3604 18.6547 17.5826 18.7928C17.6967 18.8649 17.8889 18.7628 17.9069 18.7508C17.5165 17.976 16.7658 18.6246 16.5916 18.018C16.5856 18.006 16.5736 17.994 16.5616 18.03C16.5195 18.1562 16.1892 18.1682 16.1291 17.9159C16.1231 17.8979 16.1291 17.8919 16.1471 17.9039C16.1952 17.952 16.2973 17.994 16.4354 17.8018C16.5255 17.6697 16.5375 17.4955 16.5375 17.3814C16.5375 16.9129 16.0691 16.1201 15.3363 16.1201C14.8739 16.1201 14.3754 16.3003 14.003 16.5706L14.3453 16.6486C14.3153 16.997 13.979 17.2012 13.6727 17.1111L13.7267 16.7147C13.6727 16.7327 13.5405 16.7808 13.4685 16.8829C13.4625 16.8889 13.4505 16.8889 13.4505 16.8769C13.3904 16.6486 13.5766 16.5345 13.6306 16.5105C13.6366 16.5045 13.6366 16.5045 13.6246 16.5045C13.4565 16.4985 13.3664 16.6186 13.3363 16.6607C13.3303 16.6667 13.3243 16.6667 13.3243 16.6607C13.3423 16.6126 13.3123 16.4985 13.3904 16.4144ZM14.4174 19.1051C14.2853 19.2673 14.1712 19.1111 13.997 19.1111C13.8348 19.1111 13.8048 19.2492 13.8048 19.3033C13.8048 19.3153 13.7988 19.3153 13.7928 19.3093C13.6066 19.0571 13.8168 18.9189 13.9369 18.9009C13.9189 18.8829 13.7387 18.7628 13.6246 18.9309C13.6186 18.9429 13.6066 18.9369 13.6066 18.9249C13.6006 18.6126 13.8468 18.5886 14.015 18.7267C14.045 18.6066 13.967 18.5285 13.8348 18.5225C13.8168 18.5225 13.8168 18.5105 13.8228 18.5045C13.8769 18.4444 13.9309 18.4204 13.985 18.4204C14.1592 18.4204 14.1832 18.6426 14.2973 18.6426C14.4655 18.6426 14.7117 18.4144 14.7297 18.3904C14.7237 18.3784 14.5616 17.9339 14.5916 17.6697C14.5916 17.6577 14.5856 17.6577 14.5796 17.6637C14.4955 17.7117 14.2913 17.7057 14.2913 17.4535C14.2913 17.4354 14.2973 17.4294 14.3093 17.4474C14.3994 17.5736 14.5495 17.4294 14.6216 17.3453C14.6997 17.2553 15.1321 16.6306 15.7027 16.6306C15.8288 16.6306 15.991 16.7027 16.1231 16.7928C15.9249 17.033 16.1231 17.2613 16.2673 17.2312C16.2853 17.2252 16.2853 17.2432 16.2733 17.2493C15.5165 17.5315 15.1802 17.6456 15.1802 18.2823C15.1802 18.6126 15.2943 18.7988 15.4865 18.7508C15.4985 18.7447 15.5045 18.7507 15.4925 18.7628C15.4204 18.8468 15.3423 18.8769 15.2763 18.8769C15.1201 18.8769 15.0901 18.7928 15.006 18.7928C14.9219 18.7928 14.6396 18.961 14.6396 19.0991C14.6396 19.1532 14.6757 19.2252 14.7718 19.2853C14.7778 19.2913 14.7718 19.2973 14.7718 19.2973C14.6877 19.2973 14.4655 19.3153 14.4174 19.1051ZM16.4054 12.9489C16.1712 12.9369 16.015 12.985 16.027 13.0631C16.1411 13.1832 16.2913 13.1712 16.4054 12.9489ZM15.5345 13.5315C15.7027 13.4895 15.8829 13.5075 15.9069 13.5135C15.9309 13.5195 15.9309 13.5616 15.9009 13.5676C15.5526 13.6096 15.5345 13.7718 15.3123 13.7718C15.1682 13.7718 15.006 13.6216 15.0661 13.4054C15.0721 13.3754 15.0961 13.3754 15.1021 13.4054C15.1261 13.5015 15.2643 13.6036 15.5345 13.5315ZM11.012 21.2553C11.2402 21.5495 11.4625 21.2733 11.7688 21.2733C11.9189 21.2733 12.0991 21.3213 12.1291 21.6216C12.1291 21.6396 12.1411 21.6396 12.1592 21.6216C12.4895 21.1712 12.1111 20.9189 11.8949 20.8829C11.9429 20.8408 12.2613 20.6426 12.4715 20.9369C12.4835 20.955 12.5075 20.949 12.5075 20.9249C12.5075 20.3544 12.0811 20.3123 11.7688 20.5586C11.7087 20.3363 11.8769 20.1922 12.0931 20.1922C12.1171 20.1922 12.1291 20.1742 12.1171 20.1622C11.7327 19.7538 11.4505 20.2703 11.3844 20.3483C11.2342 20.5526 10.6877 20.1682 10.4655 19.9399C10.4655 19.9399 10.9459 19.4354 10.9459 18.973C10.9459 18.9429 10.9399 18.9069 10.9399 18.8889C10.9399 18.8769 10.9459 18.8709 10.958 18.8769C11.006 18.9069 11.0721 18.9249 11.1381 18.9249C11.2462 18.9249 11.4565 18.8889 11.4565 18.4985C11.4565 18.4685 11.4444 18.4685 11.4324 18.4865C11.3724 18.5706 11.3123 18.5886 11.2643 18.5886C10.8739 18.5886 10.0631 17.2913 9.1021 17.2913C8.84985 17.2913 8.37538 17.4715 8.14114 17.7297C8.25525 17.7958 8.27928 17.9399 8.26727 18.042C8.24925 18.2042 8.11712 18.2883 7.98498 18.3243C7.96096 18.3303 7.96096 18.3483 7.98498 18.3604C8.47147 18.5465 9.34835 18.8769 9.55255 19.0511C9.78679 19.2553 9.74474 19.6396 9.60661 20.1742C9.47447 20.6847 9.19219 20.6186 9.08408 20.6006C9.06607 20.6006 9.06607 20.6066 9.07207 20.6186C9.1982 20.7748 9.34835 20.8288 9.48048 20.8288C9.73273 20.8288 9.82883 20.6727 9.95495 20.6727C10.1712 20.6727 10.6336 20.985 10.6336 21.2252C10.6336 21.3574 10.5315 21.4835 10.3934 21.5676C10.3874 21.5736 10.3874 21.5856 10.3994 21.5856C10.5015 21.6036 10.9279 21.6396 11.012 21.2553ZM21.6006 21.5856C21.6126 21.5856 21.6186 21.5736 21.6066 21.5676C21.4745 21.4775 21.3664 21.3574 21.3664 21.2252C21.3664 20.985 21.8228 20.6727 22.045 20.6727C22.1772 20.6727 22.2673 20.8288 22.5195 20.8288C22.6517 20.8288 22.8018 20.7748 22.9279 20.6186C22.9399 20.6066 22.9339 20.5946 22.9159 20.6006C22.8138 20.6186 22.5255 20.6847 22.3934 20.1742C22.2553 19.6396 22.2072 19.2553 22.4474 19.0511C22.6456 18.8769 23.5285 18.5465 24.015 18.3604C24.039 18.3483 24.039 18.3303 24.015 18.3243C23.8829 18.2883 23.7508 18.2042 23.7327 18.042C23.7207 17.9399 23.7447 17.8018 23.8589 17.7297C23.6186 17.4715 23.1441 17.2913 22.8919 17.2913C21.9309 17.2913 21.1201 18.5886 20.7297 18.5886C20.6817 18.5886 20.6156 18.5706 20.5616 18.4865C20.5496 18.4685 20.5375 18.4685 20.5375 18.4985C20.5375 18.8889 20.7477 18.9249 20.8559 18.9249C20.9159 18.9249 20.988 18.9069 21.036 18.8769C21.048 18.8709 21.0541 18.8769 21.0541 18.8889C21.0541 18.9069 21.048 18.9429 21.048 18.973C21.048 19.4354 21.5285 19.9399 21.5285 19.9399C21.3123 20.1682 20.7658 20.5465 20.6096 20.3483C20.5435 20.2643 20.2613 19.7538 19.8769 20.1622C19.8649 20.1802 19.8709 20.1922 19.9009 20.1922C20.1171 20.1922 20.2853 20.3363 20.2252 20.5586C19.9129 20.3123 19.4865 20.3544 19.4865 20.9249C19.4865 20.949 19.5105 20.955 19.5225 20.9369C19.7267 20.6426 20.0511 20.8408 20.0931 20.8829C19.8769 20.9129 19.5045 21.1712 19.8288 21.6216C19.8408 21.6396 19.8529 21.6396 19.8589 21.6216C19.8949 21.3273 20.0751 21.2733 20.2192 21.2733C20.5195 21.2733 20.7417 21.5495 20.976 21.2553C21.0721 21.6396 21.4985 21.6036 21.6006 21.5856ZM13.8468 14.0961C13.8168 14.1381 13.7147 14.0961 13.6787 14.0781C13.6727 14.0721 13.6667 14.0781 13.6727 14.0841C13.6967 14.1381 13.7928 14.3003 13.9369 14.3003C14.003 14.3003 14.0991 14.2643 14.1231 14.2162C14.1231 14.2162 14.6877 14.4024 14.964 14.4745C14.8559 14.6186 14.7898 14.7928 14.7718 14.979C14.5495 14.8408 13.6486 14.3604 13.6486 14.3604L13.3724 14.7447C13.3243 14.8048 13.1021 14.6426 13.1502 14.5826L13.3604 14.2883C13.2883 14.2162 13.1201 14.2583 13.0721 14.2763C13.0661 14.2763 13.0601 14.2763 13.0661 14.2643C13.0961 14.2042 13.1982 14.03 13.4625 14.1081C13.4625 13.9459 13.2222 14 13.1562 14.018C13.1502 14.018 13.1441 14.018 13.1502 14.012C13.2162 13.9399 13.4144 13.7838 13.6306 13.9159L13.7267 13.7838L13.5345 13.5796L13.6547 13.4114L13.7928 13.5916L14.8318 12.1682C14.8559 12.1321 15.0661 12.0721 15.1381 12.0541C15.1441 12.1321 15.1562 12.3483 15.1321 12.3844L14.1111 13.8198L14.3273 13.8919L14.2072 14.0601L13.955 13.9399L13.8468 14.0961ZM17.4925 13.8619C17.4925 13.994 17.5706 14.1862 17.7447 14.1261C17.7508 14.1201 17.7628 14.1261 17.7568 14.1321C17.7327 14.2763 17.4685 14.4084 17.3544 14.2402C17.2462 14.4625 17.2763 14.6727 17.4985 14.7928C17.5105 14.7988 17.5105 14.8168 17.4985 14.8288C17.3604 14.9249 17.1502 14.9069 17.0541 14.7147C16.8679 14.8529 16.8919 15.1532 17.006 15.2553C17.006 15.2553 16.4895 15.5616 16.021 15.3453C15.7087 15.1952 15.4565 15.003 15.0541 15.039C15.1081 14.4745 15.3904 14.3303 15.9069 14.2462C16.3213 14.1802 16.3694 13.988 16.3153 13.8438C16.1772 13.8078 15.9189 13.9339 15.9189 13.9339C15.8709 13.8559 15.9369 13.7778 15.9369 13.7778C15.9129 13.7477 15.9009 13.6456 15.9009 13.6456C16.1892 13.6456 16.2432 13.5796 16.2432 13.5796C16.2973 13.2793 15.991 13.2493 15.7568 13.4114C15.6486 13.3153 15.6667 13.1892 15.6667 13.1892C15.6366 13.1712 15.6126 13.1231 15.6126 13.0991C15.6126 13.027 15.955 12.8348 16.045 12.8108C16.0691 12.7087 16.1892 12.5706 16.5556 12.6066C16.5976 12.5105 16.5255 12.1562 16.4835 12.0661C16.4715 12.036 16.4895 12.024 16.5195 12.042C16.6456 12.1201 16.7718 12.4204 16.8619 12.4264C16.8619 12.4264 17.2703 12.2102 17.2883 12.2222C17.3063 12.2342 17.3664 12.6907 17.3664 12.6907C17.4204 12.7568 17.7387 12.6907 17.8769 12.7508C17.9129 12.7688 17.9129 12.7928 17.8769 12.7988C17.7748 12.8168 17.4444 12.961 17.3904 13.0511C17.5826 13.3333 17.4925 13.7477 17.4925 13.8619Z" fill="white"/>
</svg>
